<?xml version="1.0" encoding="utf-8"?>
<!-- Eye icon by Arthur Shlain from Usefulicons.com -->
<svg xmlns="http://www.w3.org/2000/svg" xmlns:xlink="http://www.w3.org/1999/xlink" xml:space="preserve" version="1.1" x="0px" y="0px" viewBox="0 0 100 100" width="400px" height="400px"><path d="M50,25C27.909,25,10,50,10,50S27.909,75,50,75S90,50,90,50S72.091,25,50,25ZM50,65C41.716,65,35,58.284,35,50C35,41.716,41.716,35,50,35S65,41.716,65,50C65,58.284,58.284,65,50,65Z" stroke="none"></path><path d="M42.5,50C42.5,45.856,45.856,42.5,50,42.5C54.144,42.5,57.5,45.856,57.5,50C57.5,54.144,54.144,57.5,50,57.5C45.856,57.5,42.5,54.144,42.5,50Z" stroke="none"></path></svg>